<?xml version="1.0" encoding="UTF-8"?>
<svg xmlns="http://www.w3.org/2000/svg" viewBox="0 0 1200 800" width="1200" height="800">
  <defs>
    <linearGradient id="bgGrad_1834" x1="0%" y1="0%" x2="100%" y2="100%">
      <stop offset="0%" stop-color="hsl(188, 65%, 15%)"/>
      <stop offset="50%" stop-color="hsl(293, 55%, 22%)"/>
      <stop offset="100%" stop-color="hsl(188, 70%, 10%)"/>
    </linearGradient>
    <linearGradient id="badgeGrad_1834" x1="0%" y1="0%" x2="100%" y2="0%">
      <stop offset="0%" stop-color="hsl(348, 85%, 55%)"/>
      <stop offset="100%" stop-color="hsl(28, 90%, 65%)"/>
    </linearGradient>
    <filter id="glow_1834" x="-20%" y="-20%" width="140%" height="140%">
      <feGaussianBlur stdDeviation="8" result="blur"/>
      <feComposite in="SourceGraphic" in2="blur" operator="over"/>
    </filter>
  </defs>

  <!-- Canvas Background -->
  <rect width="1200" height="800" fill="url(#bgGrad_1834)"/>
  
  <!-- Coordinate Reference Grid -->
  <g><line x1="100" y1="80" x2="100" y2="720" stroke="rgba(255,255,255,0.06)" stroke-width="1"/>
    <line x1="250" y1="80" x2="250" y2="720" stroke="rgba(255,255,255,0.06)" stroke-width="1"/>
    <line x1="400" y1="80" x2="400" y2="720" stroke="rgba(255,255,255,0.06)" stroke-width="1"/>
    <line x1="550" y1="80" x2="550" y2="720" stroke="rgba(255,255,255,0.06)" stroke-width="1"/>
    <line x1="700" y1="80" x2="700" y2="720" stroke="rgba(255,255,255,0.06)" stroke-width="1"/>
    <line x1="850" y1="80" x2="850" y2="720" stroke="rgba(255,255,255,0.06)" stroke-width="1"/>
    <line x1="1000" y1="80" x2="1000" y2="720" stroke="rgba(255,255,255,0.06)" stroke-width="1"/>
    <line x1="80" y1="100" x2="1120" y2="100" stroke="rgba(255,255,255,0.06)" stroke-width="1"/>
    <line x1="80" y1="200" x2="1120" y2="200" stroke="rgba(255,255,255,0.06)" stroke-width="1"/>
    <line x1="80" y1="300" x2="1120" y2="300" stroke="rgba(255,255,255,0.06)" stroke-width="1"/>
    <line x1="80" y1="400" x2="1120" y2="400" stroke="rgba(255,255,255,0.06)" stroke-width="1"/>
    <line x1="80" y1="500" x2="1120" y2="500" stroke="rgba(255,255,255,0.06)" stroke-width="1"/>
    <line x1="80" y1="600" x2="1120" y2="600" stroke="rgba(255,255,255,0.06)" stroke-width="1"/>
    <line x1="80" y1="700" x2="1120" y2="700" stroke="rgba(255,255,255,0.06)" stroke-width="1"/></g>

  <!-- Vector Topography & Subject Structural Elements -->
  <g><path d="M722,190 Q632,334 742,638" stroke="hsl(348, 75%, 65%)" stroke-width="3" fill="none" opacity="0.35"/>
    <path d="M936,652 Q758,400 688,176" stroke="hsl(348, 75%, 65%)" stroke-width="4" fill="none" opacity="0.35"/>
    <path d="M110,554 Q364,466 634,274" stroke="hsl(348, 75%, 65%)" stroke-width="5" fill="none" opacity="0.35"/>
    <path d="M324,456 Q490,372 580,372" stroke="hsl(348, 75%, 65%)" stroke-width="6" fill="none" opacity="0.35"/>
    <path d="M538,358 Q616,438 526,470" stroke="hsl(348, 75%, 65%)" stroke-width="3" fill="none" opacity="0.35"/>
    <path d="M752,260 Q542,344 472,568" stroke="hsl(348, 75%, 65%)" stroke-width="4" fill="none" opacity="0.35"/>
    <path d="M966,162 Q668,410 418,666" stroke="hsl(348, 75%, 65%)" stroke-width="5" fill="none" opacity="0.35"/>
    <path d="M140,624 Q274,476 364,204" stroke="hsl(348, 75%, 65%)" stroke-width="6" fill="none" opacity="0.35"/></g>

  <!-- Central Visual Motif Frame -->
  <rect x="60" y="60" width="1080" height="680" rx="16" fill="rgba(15, 23, 42, 0.45)" stroke="hsl(348, 60%, 45%)" stroke-width="2"/>
  
  <!-- Header Classification Badge -->
  <rect x="90" y="90" width="280" height="40" rx="8" fill="url(#badgeGrad_1834)"/>
  <text x="230" y="116" fill="#0f172a" font-family="system-ui, -apple-system, sans-serif" font-size="14" font-weight="700" text-anchor="middle" letter-spacing="1.5">
    ORIGINAL DIAGRAM
  </text>

  <!-- Lesson Identification Tag -->
  <rect x="980" y="90" width="130" height="40" rx="8" fill="rgba(255,255,255,0.12)" stroke="rgba(255,255,255,0.2)"/>
  <text x="1045" y="115" fill="#f8fafc" font-family="system-ui, -apple-system, sans-serif" font-size="14" font-weight="600" text-anchor="middle">
    LESSON 18
  </text>

  <!-- Primary Title Display -->
  <text x="90" y="190" fill="#ffffff" font-family="system-ui, -apple-system, sans-serif" font-size="32" font-weight="800" filter="url(#glow_1834)">
    Tagalog Anatomical Vocabulary and Herbal Health Reference
  </text>

  <!-- Subject Detailed Illustration & Morphology -->
  <g transform="translate(90, 220)">
    <!-- Decorative Center Emblem -->
    <circle cx="510" cy="220" r="140" fill="hsl(188, 50%, 25%)" stroke="hsl(348, 70%, 55%)" stroke-width="3" opacity="0.6"/>
    <circle cx="510" cy="220" r="100" fill="hsl(293, 60%, 30%)" stroke="hsl(348, 80%, 65%)" stroke-width="2" opacity="0.8"/>
    
    <!-- Unique Dynamic Geometric Vector Elements for Subject -->
    <polygon points="510,130 540,210 620,220 560,270 580,350 510,300 440,350 460,270 400,220 480,210" 
             fill="hsl(348, 75%, 60%)" opacity="0.85"/>
             
    <!-- Secondary Infographic Data Markers -->
    <rect x="60" y="320" width="900" height="120" rx="12" fill="rgba(15, 23, 42, 0.6)" stroke="rgba(255, 255, 255, 0.15)"/>
    <text x="90" y="360" fill="#38bdf8" font-family="system-ui, -apple-system, sans-serif" font-size="16" font-weight="700">
      AUTHENTIC SOURCE ARCHIVE:
    </text>
    <text x="90" y="390" fill="#e2e8f0" font-family="system-ui, -apple-system, sans-serif" font-size="15">
      Wonder Journey OS Curriculum Design Team · Creator: Wonder Journey Health Science Lab
    </text>
    <text x="90" y="420" fill="#94a3b8" font-family="system-ui, -apple-system, sans-serif" font-size="14">
      License: CC BY-SA 4.0 · Dimensions: 1200 × 800 · Seed ID: #VJ-1834
    </text>
  </g>

  <!-- Footer Provenance & Attribution Bar -->
  <rect x="60" y="680" width="1080" height="60" rx="0 0 16 16" fill="rgba(15, 23, 42, 0.85)"/>
  <text x="90" y="716" fill="#cbd5e1" font-family="system-ui, -apple-system, sans-serif" font-size="14">
    Wonder Journey OS · Authentic Philippine Curriculum Media Registry · media-l18-asset2-tagalog-anatomical-vocabulary-an
  </text>
</svg>