<?xml version="1.0" encoding="UTF-8" standalone="no"?>
<svg
   xmlns:dc="http://purl.org/dc/elements/1.1/"
   xmlns:cc="http://creativecommons.org/ns#"
   xmlns:rdf="http://www.w3.org/1999/02/22-rdf-syntax-ns#"
   xmlns:svg="http://www.w3.org/2000/svg"
   xmlns="http://www.w3.org/2000/svg"
   xmlns:xlink="http://www.w3.org/1999/xlink"
   xmlns:sodipodi="http://sodipodi.sourceforge.net/DTD/sodipodi-0.dtd"
   xmlns:inkscape="http://www.inkscape.org/namespaces/inkscape"
   width="745.824"
   height="871.063"
   id="svg2"
   version="1.1"
   inkscape:version="0.48.4 r9939"
   sodipodi:docname="Coat_of_arms_of_the_Philippines_(1941-1943).svg">
  <metadata
     id="metadata52">
    <rdf:RDF>
      <cc:Work
         rdf:about="">
        <dc:format>image/svg+xml</dc:format>
        <dc:type
           rdf:resource="http://purl.org/dc/dcmitype/StillImage" />
      </cc:Work>
    </rdf:RDF>
  </metadata>
  <defs
     id="defs50" />
  <sodipodi:namedview
     pagecolor="#ffffff"
     bordercolor="#666666"
     borderopacity="1"
     objecttolerance="10"
     gridtolerance="10"
     guidetolerance="10"
     inkscape:pageopacity="0"
     inkscape:pageshadow="2"
     inkscape:window-width="640"
     inkscape:window-height="480"
     id="namedview48"
     showgrid="false"
     inkscape:zoom="0.27093333"
     inkscape:cx="372.91199"
     inkscape:cy="435.53149"
     inkscape:window-x="0"
     inkscape:window-y="0"
     inkscape:window-maximized="0"
     inkscape:current-layer="svg2" />
  <path
     fill="#FFF"
     d="M633.378 336.503c1.281-60.908 11.805-119.343 41.879-172.909l-86.662-83.886H488.85s-80.495-6.307-114.11-74.082c-33.615 67.775-114.111 74.082-114.111 74.082h-99.744L74.22 163.594c30.072 53.566 40.596 112.001 41.879 172.909 1.251 59.43-27.335 115.488-24.597 174.382 2.436 52.313 36.835 93.401 83.684 113.396 33.135 14.143 69.298 17.396 104.133 25.237 36.935 8.318 66.164 23.371 95.419 47.228 29.258-23.854 58.484-38.906 95.42-47.228 34.836-7.844 70.999-11.098 104.136-25.237 46.847-19.994 81.247-61.084 83.682-113.396 2.738-58.893-25.849-114.953-24.598-174.382z"
     id="path4" />
  <path
     fill="#ce1126"
     d="M653.067 213.444c-13.394 39.274-18.795 80.563-19.688 123.061-1.097 51.966 20.624 101.354 24.266 152.313v27.022c-4.306 49.946-37.994 89.083-83.354 108.439-33.136 14.143-69.298 17.396-104.134 25.237-36.937 8.317-66.162 23.371-95.42 47.228v-483.3h278.33z"
     id="path6"
     style="fill:#00468c;fill-opacity:1" />
  <path
     fill="#00468c"
     d="M374.74 213.444v483.301c-29.258-23.855-58.485-38.909-95.42-47.228-34.836-7.842-70.998-11.096-104.134-25.237-45.358-19.356-79.048-58.493-83.353-108.439v-27.022c3.641-50.959 25.361-100.347 24.265-152.313-.894-42.497-6.296-83.786-19.688-123.061h278.33z"
     id="path8"
     style="fill:#ce1126;fill-opacity:1" />
  <path
     fill="none"
     stroke="#000"
     stroke-width="5"
     d="M633.379 336.503c1.281-60.908 11.805-119.343 41.879-172.909l-86.662-83.886H488.85s-80.496-6.307-114.11-74.082c-33.615 67.775-114.111 74.082-114.111 74.082h-99.744l-86.662 83.886c30.072 53.566 40.596 112.001 41.879 172.909 1.251 59.43-27.335 115.488-24.597 174.382 2.436 52.313 36.835 93.401 83.684 113.396 33.135 14.143 69.298 17.396 104.133 25.237 36.935 8.318 66.164 23.371 95.42 47.228 29.257-23.854 58.484-38.906 95.42-47.228 34.835-7.844 70.999-11.098 104.136-25.237 46.846-19.994 81.247-61.084 83.682-113.396 2.735-58.893-25.855-114.953-24.601-174.382z"
     id="path10" />
  <path
     fill="#FFF"
     stroke="#000"
     stroke-width="2"
     d="M708.577 599.299v-7.856l-.676-15.714-4.267-7.146c-8.403-10.179-10.889-12.58-25.169-11.74-12.229.719-26.014 4.847-30.202 17.768-7.881 24.305 2.439 52.06-6.836 77.248-7.383 20.044-24.291 37.244-40.507 50.547-61.896 50.771-151.354 58.004-228.012 60.242-76.655-2.238-166.115-9.474-228.01-60.242-16.216-13.303-33.125-30.503-40.507-50.547-9.278-25.188 1.042-52.943-6.839-77.248-4.19-12.921-17.979-17.048-30.207-17.768-14.283-.842-16.774 1.563-25.181 11.74l-4.082 7.146-.511 15.714v7.856l-9 100v24.283s4.928 18.269 5.01 18.571c10.166 37.837 62.375 66.354 95.236 80.909 38.489 17.05 78.698 29.298 120.23 37.224 40.359 7.701 81.521 8.822 122.521 9.714v.054c1-.009 1.099-.02 1.5-.025.4.009.5.02 1.5.025V870c40-.892 81.995-2.013 122.354-9.714 41.533-7.926 81.688-20.174 120.18-37.224 32.861-14.556 85.184-43.072 95.35-80.909.081-.306 5.116-18.571 5.116-18.571v-24.283l-8.991-100z"
     id="path12" />
  <path
     fill="#B3B3B3"
     stroke="#000"
     stroke-width="2"
     d="M64.943 575.227s5.537-1.043 7.354-.979c6.819.234 11.631 5.787 14.126 11.458 1.485 3.374-.184 9.048-1.842 12.155 0 .001-6.914 10.759-6.914 10.759l-7.542 12.856H39.812l25.131-46.249z"
     id="path14" />
  <path
     fill="#FFF"
     stroke="#000"
     stroke-width="2"
     d="M37.884 575.729c-3.35 16.031-33.502 66.114-36.671 89.711-.955 7.105 1.292 12.133 6.979 16.272 8.535 6.214 20.666 5.922 26.968-3.271 9.162-13.367 46.769-77.518 49.423-80.58-1.468 1.692-7.296 3.77-10.67 4.382-1.976.359-3.979.564-5.988.552-3.703-.029-7.385-.797-10.824-2.161-6.741-2.677-13.232-7.786-16.95-14.063-.982-1.656-1.735-3.444-2.12-5.338-.317-1.547-.476-3.931-.147-5.504z"
     id="path16" />
  <path
     fill="#B3B3B3"
     stroke="#000"
     stroke-width="2"
     d="M706.012 621.476h-30.316l-7.543-12.856s-6.913-10.758-6.914-10.759c-1.658-3.107-3.326-8.781-1.842-12.155 2.497-5.671 7.309-11.224 14.127-11.458 1.817-.063 7.354.979 7.354.979l25.134 46.249z"
     id="path18" />
  <path
     fill="#FFF"
     stroke="#000"
     stroke-width="2"
     d="M707.797 581.231c-.387 1.893-1.139 3.681-2.119 5.338-3.721 6.274-10.21 11.386-16.951 14.063-3.438 1.363-7.119 2.132-10.824 2.161-2.01.016-4.014-.189-5.988-.552-3.374-.612-9.2-2.688-10.671-4.382 2.656 3.063 40.264 67.213 49.424 80.58 6.305 9.193 18.436 9.485 26.971 3.271 5.688-4.143 7.934-9.167 6.979-16.273-3.17-23.596-33.322-73.679-36.672-89.711.323 1.576.164 3.96-.149 5.505z"
     id="path20" />
  <path
     d="M151.54 799.263l22.294-56.756 10.661 4.838-22.293 56.756-10.662-4.838zM134.463 725.142c-1.631-1.655-5.591-4.372-11.966-8.115l-16.814-9.869-30.529 51.922 10.486 6.145 11.501-19.563 6.865 4.014c4.746 2.788 8.486 4.678 11.28 5.65 2.077.682 4.405.909 6.916.717 2.511-.191 4.973-1.042 7.405-2.533 2.432-1.492 4.591-3.823 6.463-7.012 2.427-4.132 3.388-8.068 2.913-11.856-.474-3.792-2.003-6.973-4.52-9.5zm-10.034 5.766c.928 1.086 1.52 2.308 1.811 3.717.389 1.88.051 3.762-1.059 5.648-.901 1.534-2.114 2.65-3.585 3.344-1.472.692-3.063.904-4.774.629-1.711-.273-4.604-1.598-8.736-4.023l-5.762-3.405 8.661-14.739 5.058 3.017c3.777 2.221 6.212 3.802 7.325 4.771.379.321.751.679 1.061 1.041zM197.93 817.879l19.552-58.27 12.229 3.854-16.229 48.369 30.406 9.586-3.32 9.896-42.638-13.435zM276.795 839.896l9.611-63.156 11.67 1.585-9.61 63.156-11.671-1.585zM364.29 785.737c-2.711-.524-6.906-.986-12.627-1.354l-20.162-1.31-4.02 62.229 12.562.812 1.505-23.479 8.179.543c5.681.366 10.052.339 13.084-.063 2.234-.339 4.439-1.146 6.671-2.494 2.229-1.349 4.137-3.303 5.688-5.814 1.555-2.517 2.439-5.663 2.688-9.482.319-4.953-.603-9.063-2.8-12.347-2.198-3.281-5.065-5.539-8.565-6.702-.569-.196-1.299-.363-2.203-.539zm-7.229 9.83c.56.096 1.027.146 1.396.238 2.014.499 3.623 1.571 4.855 3.128 1.229 1.559 1.78 3.469 1.635 5.732-.119 1.84-.729 3.396-1.769 4.723-1.037 1.325-2.401 2.282-4.11 2.825-1.709.544-5.037.646-9.98.325l-6.854-.479 1.148-17.658 6.068.396c3.394.223 5.931.502 7.611.77zM410.987 845.277l-2.74-60.114 11.281-.596 2.739 60.114-11.28.596zM462.327 837.973l-9.82-60.646 12.646-1.751 32.907 36.854-6.561-40.5 12.076-1.672 9.822 60.646-13.044 1.808-32.358-35.957 6.406 39.549-12.074 1.669zM557.768 746.803l-12.073 4.747.754 67.771 12.123-4.743-.525-15.266 22.639-8.828 10.117 11.474 12.437-4.878-45.472-50.277zm-.84 16.205l16.228 18.943-15.438 5.998-.79-24.941zM622.479 767.7l10.488-6.929c2.512 3.569 5.213 5.74 8.107 6.513 2.896.771 6.063.252 9.508-1.559 3.65-1.918 6.016-4.181 7.094-6.788 1.08-2.605 1.104-5.005.07-7.193-.664-1.403-1.613-2.396-2.857-2.975-1.242-.577-3.006-.729-5.289-.433-1.558.211-4.987.937-10.295 2.173-6.823 1.599-12.01 1.877-15.556.841-4.985-1.46-8.589-4.541-10.806-9.242-1.427-3.026-1.951-6.284-1.572-9.771.378-3.486 1.77-6.722 4.166-9.701 2.4-2.979 5.758-5.604 10.068-7.87 7.041-3.7 13.112-4.854 18.215-3.451 5.104 1.399 9.026 4.78 11.778 10.146l-11.08 6.479c-1.926-2.801-4-4.448-6.225-4.948-2.229-.5-4.936.089-8.123 1.767-3.291 1.729-5.531 3.801-6.721 6.212-.767 1.55-.785 3.095-.062 4.634.664 1.405 1.791 2.313 3.386 2.725 2.028.521 6.123.021 12.284-1.499 6.16-1.519 10.908-2.232 14.244-2.147s6.353 1.013 9.047 2.781c2.697 1.771 4.933 4.531 6.703 8.287 1.604 3.405 2.215 7.063 1.83 10.977s-1.869 7.449-4.455 10.611c-2.584 3.16-6.313 6.021-11.188 8.585-7.094 3.729-13.357 4.854-18.799 3.38-5.43-1.478-10.085-5.345-13.96-11.605z"
     id="path22" />
  <path
     fill="#FFF"
     d="M168.577 597.707h412l-206-356.999z"
     id="path24" />
  <g
     fill="#fcd116"
     id="g26">
    <path
       d="M374.53 112.164l-30.282 21.73 11.725-35.38-30.024-22.084 37.271.219 11.726-35.38 11.309 35.515 37.271.219-30.281 21.73 11.308 35.516zM160.369 171.112l-30.282 21.732 11.726-35.381-30.025-22.085 37.272.22 11.726-35.379 11.309 35.514 37.271.219-30.282 21.73 11.309 35.515zM588.369 171.112l-30.281 21.732 11.725-35.381-30.025-22.085 37.271.22 11.727-35.379 11.308 35.514 37.272.219-30.282 21.73 11.309 35.515z"
       id="path28" />
  </g>
  <g
     transform="matrix(5.56097 0 0 5.56097 373.9505 471.14349)"
     fill="#fcd116"
     id="g30">
    <circle
       r="9"
       id="circle32"
       d="M 9,0 C 9,4.9705627 4.9705627,9 0,9 -4.9705627,9 -9,4.9705627 -9,0 c 0,-4.9705627 4.0294373,-9 9,-9 4.9705627,0 9,4.0294373 9,9 z" />
    <g
       id="d">
      <g
         id="c">
        <g
           id="b">
          <path
             d="M-1 0l.06151177.06151177L0 0l-.93848823-.06151177z"
             transform="scale(19)"
             id="path37" />
          <path
             id="a"
             d="M-.88366349.11633651l.0495742.0495742L0 0z"
             transform="scale(19.2381)" />
          <use
             height="100%"
             width="100%"
             xlink:href="#a"
             transform="scale(1 -1)"
             id="use40" />
        </g>
        <use
           height="100%"
           width="100%"
           xlink:href="#b"
           transform="rotate(45)"
           id="use42" />
      </g>
      <use
         height="100%"
         width="100%"
         xlink:href="#c"
         transform="rotate(90)"
         id="use44" />
    </g>
    <use
       height="100%"
       width="100%"
       xlink:href="#d"
       transform="scale(-1)"
       id="use46" />
  </g>
</svg>
