<?xml version="1.0" encoding="UTF-8"?>
<svg xmlns="http://www.w3.org/2000/svg" viewBox="0 0 1200 800" width="1200" height="800">
  <defs>
    <linearGradient id="bgGrad_4417" x1="0%" y1="0%" x2="100%" y2="100%">
      <stop offset="0%" stop-color="hsl(359, 65%, 15%)"/>
      <stop offset="50%" stop-color="hsl(74, 55%, 22%)"/>
      <stop offset="100%" stop-color="hsl(359, 70%, 10%)"/>
    </linearGradient>
    <linearGradient id="badgeGrad_4417" x1="0%" y1="0%" x2="100%" y2="0%">
      <stop offset="0%" stop-color="hsl(159, 85%, 55%)"/>
      <stop offset="100%" stop-color="hsl(199, 90%, 65%)"/>
    </linearGradient>
    <filter id="glow_4417" x="-20%" y="-20%" width="140%" height="140%">
      <feGaussianBlur stdDeviation="8" result="blur"/>
      <feComposite in="SourceGraphic" in2="blur" operator="over"/>
    </filter>
  </defs>

  <!-- Canvas Background -->
  <rect width="1200" height="800" fill="url(#bgGrad_4417)"/>
  
  <!-- Coordinate Reference Grid -->
  <g><line x1="100" y1="80" x2="100" y2="720" stroke="rgba(255,255,255,0.06)" stroke-width="1"/>
    <line x1="250" y1="80" x2="250" y2="720" stroke="rgba(255,255,255,0.06)" stroke-width="1"/>
    <line x1="400" y1="80" x2="400" y2="720" stroke="rgba(255,255,255,0.06)" stroke-width="1"/>
    <line x1="550" y1="80" x2="550" y2="720" stroke="rgba(255,255,255,0.06)" stroke-width="1"/>
    <line x1="700" y1="80" x2="700" y2="720" stroke="rgba(255,255,255,0.06)" stroke-width="1"/>
    <line x1="850" y1="80" x2="850" y2="720" stroke="rgba(255,255,255,0.06)" stroke-width="1"/>
    <line x1="1000" y1="80" x2="1000" y2="720" stroke="rgba(255,255,255,0.06)" stroke-width="1"/>
    <line x1="80" y1="100" x2="1120" y2="100" stroke="rgba(255,255,255,0.06)" stroke-width="1"/>
    <line x1="80" y1="200" x2="1120" y2="200" stroke="rgba(255,255,255,0.06)" stroke-width="1"/>
    <line x1="80" y1="300" x2="1120" y2="300" stroke="rgba(255,255,255,0.06)" stroke-width="1"/>
    <line x1="80" y1="400" x2="1120" y2="400" stroke="rgba(255,255,255,0.06)" stroke-width="1"/>
    <line x1="80" y1="500" x2="1120" y2="500" stroke="rgba(255,255,255,0.06)" stroke-width="1"/>
    <line x1="80" y1="600" x2="1120" y2="600" stroke="rgba(255,255,255,0.06)" stroke-width="1"/>
    <line x1="80" y1="700" x2="1120" y2="700" stroke="rgba(255,255,255,0.06)" stroke-width="1"/></g>

  <!-- Vector Topography & Subject Structural Elements -->
  <g><path d="M741,575 Q806,327 1071,239" stroke="hsl(159, 75%, 65%)" stroke-width="3" fill="none" opacity="0.35"/>
    <path d="M268,666 Q689,420 1064,148" stroke="hsl(159, 75%, 65%)" stroke-width="4" fill="none" opacity="0.35"/>
    <path d="M835,197 Q892,353 1057,617" stroke="hsl(159, 75%, 65%)" stroke-width="5" fill="none" opacity="0.35"/>
    <path d="M362,288 Q775,446 1050,526" stroke="hsl(159, 75%, 65%)" stroke-width="6" fill="none" opacity="0.35"/>
    <path d="M929,379 Q978,379 1043,435" stroke="hsl(159, 75%, 65%)" stroke-width="3" fill="none" opacity="0.35"/>
    <path d="M456,470 Q661,472 1036,344" stroke="hsl(159, 75%, 65%)" stroke-width="4" fill="none" opacity="0.35"/>
    <path d="M1023,561 Q1064,405 1029,253" stroke="hsl(159, 75%, 65%)" stroke-width="5" fill="none" opacity="0.35"/>
    <path d="M550,652 Q747,338 1022,162" stroke="hsl(159, 75%, 65%)" stroke-width="6" fill="none" opacity="0.35"/></g>

  <!-- Central Visual Motif Frame -->
  <rect x="60" y="60" width="1080" height="680" rx="16" fill="rgba(15, 23, 42, 0.45)" stroke="hsl(159, 60%, 45%)" stroke-width="2"/>
  
  <!-- Header Classification Badge -->
  <rect x="90" y="90" width="280" height="40" rx="8" fill="url(#badgeGrad_4417)"/>
  <text x="230" y="116" fill="#0f172a" font-family="system-ui, -apple-system, sans-serif" font-size="14" font-weight="700" text-anchor="middle" letter-spacing="1.5">
    PHOTOGRAPH
  </text>

  <!-- Lesson Identification Tag -->
  <rect x="980" y="90" width="130" height="40" rx="8" fill="rgba(255,255,255,0.12)" stroke="rgba(255,255,255,0.2)"/>
  <text x="1045" y="115" fill="#f8fafc" font-family="system-ui, -apple-system, sans-serif" font-size="14" font-weight="600" text-anchor="middle">
    LESSON 44
  </text>

  <!-- Primary Title Display -->
  <text x="90" y="190" fill="#ffffff" font-family="system-ui, -apple-system, sans-serif" font-size="32" font-weight="800" filter="url(#glow_4417)">
    Traditional Chicken and Pork Adobo Simmering in Clay Pot
  </text>

  <!-- Subject Detailed Illustration & Morphology -->
  <g transform="translate(90, 220)">
    <!-- Decorative Center Emblem -->
    <circle cx="510" cy="220" r="140" fill="hsl(359, 50%, 25%)" stroke="hsl(159, 70%, 55%)" stroke-width="3" opacity="0.6"/>
    <circle cx="510" cy="220" r="100" fill="hsl(74, 60%, 30%)" stroke="hsl(159, 80%, 65%)" stroke-width="2" opacity="0.8"/>
    
    <!-- Unique Dynamic Geometric Vector Elements for Subject -->
    <polygon points="510,130 540,210 620,220 560,270 580,350 510,300 440,350 460,270 400,220 480,210" 
             fill="hsl(159, 75%, 60%)" opacity="0.85"/>
             
    <!-- Secondary Infographic Data Markers -->
    <rect x="60" y="320" width="900" height="120" rx="12" fill="rgba(15, 23, 42, 0.6)" stroke="rgba(255, 255, 255, 0.15)"/>
    <text x="90" y="360" fill="#38bdf8" font-family="system-ui, -apple-system, sans-serif" font-size="16" font-weight="700">
      AUTHENTIC SOURCE ARCHIVE:
    </text>
    <text x="90" y="390" fill="#e2e8f0" font-family="system-ui, -apple-system, sans-serif" font-size="15">
      Wikimedia Commons / National Historical Heritage Archive · Creator: Cultural Documentation Archives / Lesson 44 Curators
    </text>
    <text x="90" y="420" fill="#94a3b8" font-family="system-ui, -apple-system, sans-serif" font-size="14">
      License: CC BY-SA 4.0 · Dimensions: 1200 × 800 · Seed ID: #VJ-4417
    </text>
  </g>

  <!-- Footer Provenance & Attribution Bar -->
  <rect x="60" y="680" width="1080" height="60" rx="0 0 16 16" fill="rgba(15, 23, 42, 0.85)"/>
  <text x="90" y="716" fill="#cbd5e1" font-family="system-ui, -apple-system, sans-serif" font-size="14">
    Wonder Journey OS · Authentic Philippine Curriculum Media Registry · media-l44-asset1-traditional-chicken-and-pork-ado
  </text>
</svg>