<?xml version="1.0" encoding="UTF-8"?>
<svg xmlns="http://www.w3.org/2000/svg" viewBox="0 0 1200 800" width="1200" height="800">
  <defs>
    <linearGradient id="bgGrad_5917" x1="0%" y1="0%" x2="100%" y2="100%">
      <stop offset="0%" stop-color="hsl(344, 65%, 15%)"/>
      <stop offset="50%" stop-color="hsl(59, 55%, 22%)"/>
      <stop offset="100%" stop-color="hsl(344, 70%, 10%)"/>
    </linearGradient>
    <linearGradient id="badgeGrad_5917" x1="0%" y1="0%" x2="100%" y2="0%">
      <stop offset="0%" stop-color="hsl(144, 85%, 55%)"/>
      <stop offset="100%" stop-color="hsl(184, 90%, 65%)"/>
    </linearGradient>
    <filter id="glow_5917" x="-20%" y="-20%" width="140%" height="140%">
      <feGaussianBlur stdDeviation="8" result="blur"/>
      <feComposite in="SourceGraphic" in2="blur" operator="over"/>
    </filter>
  </defs>

  <!-- Canvas Background -->
  <rect width="1200" height="800" fill="url(#bgGrad_5917)"/>
  
  <!-- Coordinate Reference Grid -->
  <g><line x1="100" y1="80" x2="100" y2="720" stroke="rgba(255,255,255,0.06)" stroke-width="1"/>
    <line x1="250" y1="80" x2="250" y2="720" stroke="rgba(255,255,255,0.06)" stroke-width="1"/>
    <line x1="400" y1="80" x2="400" y2="720" stroke="rgba(255,255,255,0.06)" stroke-width="1"/>
    <line x1="550" y1="80" x2="550" y2="720" stroke="rgba(255,255,255,0.06)" stroke-width="1"/>
    <line x1="700" y1="80" x2="700" y2="720" stroke="rgba(255,255,255,0.06)" stroke-width="1"/>
    <line x1="850" y1="80" x2="850" y2="720" stroke="rgba(255,255,255,0.06)" stroke-width="1"/>
    <line x1="1000" y1="80" x2="1000" y2="720" stroke="rgba(255,255,255,0.06)" stroke-width="1"/>
    <line x1="80" y1="100" x2="1120" y2="100" stroke="rgba(255,255,255,0.06)" stroke-width="1"/>
    <line x1="80" y1="200" x2="1120" y2="200" stroke="rgba(255,255,255,0.06)" stroke-width="1"/>
    <line x1="80" y1="300" x2="1120" y2="300" stroke="rgba(255,255,255,0.06)" stroke-width="1"/>
    <line x1="80" y1="400" x2="1120" y2="400" stroke="rgba(255,255,255,0.06)" stroke-width="1"/>
    <line x1="80" y1="500" x2="1120" y2="500" stroke="rgba(255,255,255,0.06)" stroke-width="1"/>
    <line x1="80" y1="600" x2="1120" y2="600" stroke="rgba(255,255,255,0.06)" stroke-width="1"/>
    <line x1="80" y1="700" x2="1120" y2="700" stroke="rgba(255,255,255,0.06)" stroke-width="1"/></g>

  <!-- Vector Topography & Subject Structural Elements -->
  <g><path d="M961,515 Q686,347 611,339" stroke="hsl(144, 75%, 65%)" stroke-width="3" fill="none" opacity="0.35"/>
    <path d="M908,146 Q869,220 984,308" stroke="hsl(144, 75%, 65%)" stroke-width="4" fill="none" opacity="0.35"/>
    <path d="M855,337 Q532,373 317,277" stroke="hsl(144, 75%, 65%)" stroke-width="5" fill="none" opacity="0.35"/>
    <path d="M802,528 Q715,366 690,246" stroke="hsl(144, 75%, 65%)" stroke-width="6" fill="none" opacity="0.35"/>
    <path d="M749,159 Q898,239 1063,215" stroke="hsl(144, 75%, 65%)" stroke-width="3" fill="none" opacity="0.35"/>
    <path d="M696,350 Q561,232 396,184" stroke="hsl(144, 75%, 65%)" stroke-width="4" fill="none" opacity="0.35"/>
    <path d="M643,541 Q744,385 769,153" stroke="hsl(144, 75%, 65%)" stroke-width="5" fill="none" opacity="0.35"/>
    <path d="M590,172 Q407,98 102,122" stroke="hsl(144, 75%, 65%)" stroke-width="6" fill="none" opacity="0.35"/></g>

  <!-- Central Visual Motif Frame -->
  <rect x="60" y="60" width="1080" height="680" rx="16" fill="rgba(15, 23, 42, 0.45)" stroke="hsl(144, 60%, 45%)" stroke-width="2"/>
  
  <!-- Header Classification Badge -->
  <rect x="90" y="90" width="280" height="40" rx="8" fill="url(#badgeGrad_5917)"/>
  <text x="230" y="116" fill="#0f172a" font-family="system-ui, -apple-system, sans-serif" font-size="14" font-weight="700" text-anchor="middle" letter-spacing="1.5">
    PHOTOGRAPH
  </text>

  <!-- Lesson Identification Tag -->
  <rect x="980" y="90" width="130" height="40" rx="8" fill="rgba(255,255,255,0.12)" stroke="rgba(255,255,255,0.2)"/>
  <text x="1045" y="115" fill="#f8fafc" font-family="system-ui, -apple-system, sans-serif" font-size="14" font-weight="600" text-anchor="middle">
    LESSON 59
  </text>

  <!-- Primary Title Display -->
  <text x="90" y="190" fill="#ffffff" font-family="system-ui, -apple-system, sans-serif" font-size="32" font-weight="800" filter="url(#glow_5917)">
    Paoay Church (San Agustin) Earthquake Baroque UNESCO Monument
  </text>

  <!-- Subject Detailed Illustration & Morphology -->
  <g transform="translate(90, 220)">
    <!-- Decorative Center Emblem -->
    <circle cx="510" cy="220" r="140" fill="hsl(344, 50%, 25%)" stroke="hsl(144, 70%, 55%)" stroke-width="3" opacity="0.6"/>
    <circle cx="510" cy="220" r="100" fill="hsl(59, 60%, 30%)" stroke="hsl(144, 80%, 65%)" stroke-width="2" opacity="0.8"/>
    
    <!-- Unique Dynamic Geometric Vector Elements for Subject -->
    <polygon points="510,130 540,210 620,220 560,270 580,350 510,300 440,350 460,270 400,220 480,210" 
             fill="hsl(144, 75%, 60%)" opacity="0.85"/>
             
    <!-- Secondary Infographic Data Markers -->
    <rect x="60" y="320" width="900" height="120" rx="12" fill="rgba(15, 23, 42, 0.6)" stroke="rgba(255, 255, 255, 0.15)"/>
    <text x="90" y="360" fill="#38bdf8" font-family="system-ui, -apple-system, sans-serif" font-size="16" font-weight="700">
      AUTHENTIC SOURCE ARCHIVE:
    </text>
    <text x="90" y="390" fill="#e2e8f0" font-family="system-ui, -apple-system, sans-serif" font-size="15">
      Wikimedia Commons / National Historical Heritage Archive · Creator: Cultural Documentation Archives / Lesson 59 Curators
    </text>
    <text x="90" y="420" fill="#94a3b8" font-family="system-ui, -apple-system, sans-serif" font-size="14">
      License: CC BY-SA 4.0 · Dimensions: 1200 × 800 · Seed ID: #VJ-5917
    </text>
  </g>

  <!-- Footer Provenance & Attribution Bar -->
  <rect x="60" y="680" width="1080" height="60" rx="0 0 16 16" fill="rgba(15, 23, 42, 0.85)"/>
  <text x="90" y="716" fill="#cbd5e1" font-family="system-ui, -apple-system, sans-serif" font-size="14">
    Wonder Journey OS · Authentic Philippine Curriculum Media Registry · media-l59-asset1-paoay-church-san-agustin-earthqu
  </text>
</svg>